# xmcd
#
# Track frame offsets:
#	150
#	11890
#	35479
#	46641
#	60650
#	73105
#	85979
#	97076
#	108332
#	125832
#	137184
#	149657
#	163335
#	175353
#	188574
#	200367
#	211218
#	223040
#	234972
#	246214
#	257907
#	271322
#	284263
#	295827
#	306403
#	319207
#	330663
#
# Disc length: 4582 seconds
#
# Revision: 0
# Processed by: cddbd v1.5.2PL0 Copyright (c) Steve Scherf et al.
# Submitted via: audiograbber 1.83.01
#
DISCID=ad11e41b
DTITLE=Various Artist - The Complete Motown Singles 1959-1961 Vol. 1 CD4
DYEAR=2004
DGENRE=Soul
TTITLE0=The Satintones - Angel
TTITLE1=Marvin Gay - (I'm Afraid) The Masquerade Is Over
TTITLE2=Marvin Gay - Witchcraft
TTITLE3=Marvin Gaye - Let Your Conscience Be Your Guide
TTITLE4=Marvin Gaye - Never Let You Go (Sha Lu Bop)
TTITLE5=Mary Wells - I Don't Want To Take A Chance
TTITLE6=Mary Wells - I'm So Sorry
TTITLE7=Andre Williams - Rosa Lee (Stay Off The Bell)
TTITLE8=Andre Williams - Shoo-Doo
TTITLE9=Barrett Strong - Misery
TTITLE10=Barrett Strong - Two Wrongs Don't Make A Right
TTITLE11=The Miracles - Broken Hearted
TTITLE12=The Miracles - Mighty Good Lovin'
TTITLE13=Mable John - No Love [without Strings]
TTITLE14=Mable John - Looking For A Man
TTITLE15=Gino Parks - Same Thing
TTITLE16=Gino Parks - That's No Lie
TTITLE17=The Satintones - I Know How It Feels
TTITLE18=The Satintones - My Kind Of Love
TTITLE19=Mable John - No Love [with Strings]
TTITLE20=The Supremes - Buttered Popcorn [first Version]
TTITLE21=The Supremes - Who's Lovin' You
TTITLE22=The Supremes - Buttered Popcorn [second Version]
TTITLE23=The Temptations - Oh Mother Of Mine
TTITLE24=The Temptations - Romance Without Finance
TTITLE25=Golden Harmoneers - I Am Bound
TTITLE26=Golden Harmoneers - Precious Memories
EXTD=
EXTT0=
EXTT1=
EXTT2=
EXTT3=
EXTT4=
EXTT5=
EXTT6=
EXTT7=
EXTT8=
EXTT9=
EXTT10=
EXTT11=
EXTT12=
EXTT13=
EXTT14=
EXTT15=
EXTT16=
EXTT17=
EXTT18=
EXTT19=
EXTT20=
EXTT21=
EXTT22=
EXTT23=
EXTT24=
EXTT25=
EXTT26=
PLAYORDER=
